<svg id="Ebene_1" data-name="Ebene 1" xmlns="http://www.w3.org/2000/svg" viewBox="0 0 99.21 99.21"><defs><style>.cls-1{fill:#938f95;}</style></defs><title>Zeichenfläche 1</title><path d="M15.25,82.59a2.78,2.78,0,0,0,.89.13,1.54,1.54,0,0,0,1.7-1.63c0-1.09-.67-1.52-1.88-1.52a2.17,2.17,0,0,0-.6.05c-.07,0-.11.07-.11.27Zm0,1.72c0,1.08.1,1.15,1.24,1.21v.23H13.21v-.23c1-.06,1.06-.13,1.06-1.21V80.72c0-1.08-.1-1.15-1-1.21v-.23h3a3.73,3.73,0,0,1,2,.42A1.51,1.51,0,0,1,19,81.06c0,1.23-1.16,1.88-2.29,2a5.16,5.16,0,0,1-.53,0l-.88-.19Z"/><path d="M21.64,80.72c0-1.08-.1-1.15-1-1.21v-.23h5.16c0,.17.07.9.13,1.45l-.3,0a1.7,1.7,0,0,0-.42-.92,2.2,2.2,0,0,0-1.3-.23H23c-.33,0-.35,0-.35.3v2.28h1.18c1,0,1.05-.06,1.17-.8h.29v2H25c-.06-.37-.09-.56-.25-.68s-.41-.12-.92-.12H22.63v1.76c0,.57.07.87.29,1a3.09,3.09,0,0,0,1.2.12,2.46,2.46,0,0,0,1.48-.28,2.68,2.68,0,0,0,.57-1l.29,0c-.06.28-.31,1.29-.41,1.56H20.48v-.23c1.06-.06,1.16-.13,1.16-1.21Z"/><path d="M30,84.48c0,.46,0,.66.2.77a1.55,1.55,0,0,0,.84.17c2.47,0,3.42-1.44,3.42-2.94A2.53,2.53,0,0,0,33,79.9a5.1,5.1,0,0,0-2.07-.33,3,3,0,0,0-.85.06c-.07,0-.11.08-.11.27Zm1.3-5.2a5.3,5.3,0,0,1,3.28.83,2.68,2.68,0,0,1,1,2.12c0,2.46-2.23,3.52-5,3.52h-2.7v-.23c1-.06,1.1-.13,1.1-1.21V80.72c0-1.08-.09-1.15-1-1.21v-.23Z"/><path d="M39,84.31c0,1.08.09,1.15,1.06,1.21v.23H37v-.23c1-.06,1.06-.13,1.06-1.21V80.72c0-1.08-.1-1.15-1.06-1.21v-.23h3.11v.23c-1,.06-1.06.13-1.06,1.21Z"/><path d="M43.89,82.91H46l-1-2.45h0Zm2.25,2.61.37,0c.44,0,.49-.15.37-.45s-.43-1-.76-1.74H43.74c-.12.26-.43,1-.59,1.46s-.12.7.41.74l.35,0v.23H41.39v-.23c.77-.07.86-.13,1.27-1l2.43-5.29.27-.09L46.2,81c.55,1.27,1.07,2.53,1.53,3.55.37.83.53.9,1.26,1v.23H46.14Z"/><path class="cls-1" d="M52.83,82.59a2.78,2.78,0,0,0,.89.13,1.54,1.54,0,0,0,1.7-1.63c0-1.09-.67-1.52-1.88-1.52a2.17,2.17,0,0,0-.6.05c-.07,0-.11.07-.11.27Zm0,1.72c0,1.08.1,1.15,1.24,1.21v.23H50.79v-.23c1-.06,1.06-.13,1.06-1.21V80.72c0-1.08-.1-1.15-1-1.21v-.23h3a3.73,3.73,0,0,1,2,.42,1.51,1.51,0,0,1,.75,1.36c0,1.23-1.17,1.88-2.3,2a4.88,4.88,0,0,1-.52,0l-.88-.19Z"/><path class="cls-1" d="M60.21,82.62h.68a2.07,2.07,0,0,0,1.18-.27A1.53,1.53,0,0,0,62.75,81c0-1-.9-1.46-1.78-1.46a2.48,2.48,0,0,0-.66.05c-.07,0-.1.07-.1.27Zm0,1.69c0,1.08.09,1.15,1.06,1.21v.23H58.13v-.23c1-.06,1.09-.13,1.09-1.21V80.72c0-1.08-.1-1.15-1-1.21v-.23h3a3.94,3.94,0,0,1,1.86.34,1.4,1.4,0,0,1,.78,1.27c0,.83-.6,1.42-1.56,1.75.21.29.7,1,1,1.42a8.91,8.91,0,0,0,1,1.09,1.57,1.57,0,0,0,.88.5l0,.19H65a2.4,2.4,0,0,1-2.22-.93c-.36-.44-.86-1.18-1.19-1.65a.78.78,0,0,0-.74-.36h-.63Z"/><path class="cls-1" d="M67.42,80.72c0-1.08-.09-1.15-1-1.21v-.23h5.15c0,.17.07.9.13,1.45l-.29,0a1.7,1.7,0,0,0-.43-.92,2.14,2.14,0,0,0-1.29-.23h-.89c-.33,0-.36,0-.36.3v2.28H69.6c1,0,1.05-.06,1.17-.8h.29v2h-.29c-.06-.37-.1-.56-.25-.68a1.76,1.76,0,0,0-.92-.12H68.41v1.76c0,.57.07.87.3,1a3.06,3.06,0,0,0,1.2.12,2.48,2.48,0,0,0,1.48-.28,2.55,2.55,0,0,0,.56-1l.3,0c-.06.28-.32,1.29-.41,1.56H66.27v-.23c1.06-.06,1.15-.13,1.15-1.21Z"/><path class="cls-1" d="M74.47,84a2.31,2.31,0,0,0,2,1.57A1.29,1.29,0,0,0,78,84.29c0-.85-.77-1.2-1.52-1.5-.39-.17-2-.63-2-1.83,0-1,.88-1.83,2.43-1.83a3.93,3.93,0,0,1,1,.13c.16,0,.32.09.45.11.05.35.12.74.21,1.34l-.29,0a1.57,1.57,0,0,0-1.6-1.28,1.13,1.13,0,0,0-1.27,1.1c0,.74.62,1.07,1.52,1.41s2,.69,2,1.93-1.12,2-2.62,2a4.32,4.32,0,0,1-1.11-.15c-.3-.08-.51-.16-.65-.21-.1-.26-.22-1-.34-1.5Z"/><path class="cls-1" d="M81,84a2.31,2.31,0,0,0,2,1.57,1.29,1.29,0,0,0,1.46-1.28c0-.85-.77-1.2-1.52-1.5-.39-.17-2-.63-2-1.83,0-1,.88-1.83,2.42-1.83a4.08,4.08,0,0,1,1,.13c.15,0,.32.09.45.11,0,.35.12.74.21,1.34l-.29,0a1.57,1.57,0,0,0-1.61-1.28,1.13,1.13,0,0,0-1.27,1.1c0,.74.63,1.07,1.52,1.41s2,.69,2,1.93-1.12,2-2.62,2a4.46,4.46,0,0,1-1.12-.15c-.29-.08-.5-.16-.64-.21a14.86,14.86,0,0,1-.34-1.5Z"/><path d="M81.8,43.21A6.91,6.91,0,0,1,85,45.64a5,5,0,0,1,.41,4.64s-2.55-2-5.62-3.87A27.82,27.82,0,0,0,75,43.84s1.41-.36,3-.59a20,20,0,0,1,3.77,0"/><path class="cls-1" d="M57.18,30.3a4.41,4.41,0,0,0,.11-.7l-.94-.5a14.75,14.75,0,0,0-4.48-.88c-.46.66-.93,1.32-1.41,2A24,24,0,0,1,57.18,30.3Z"/><path class="cls-1" d="M80.38,41.77,69.73,36.16c.58,1.13,2,3.78-2.13,6.09C53.85,49.91,43,43.36,43,43.36a19.4,19.4,0,0,0-2.11,3C38.81,49.88,38,55.56,38,55.56l-8-5.32a25.21,25.21,0,0,1,2.72-7.34A7.66,7.66,0,0,1,28,43,29.06,29.06,0,0,0,25,52L53.18,71.06s.61-17.31,13.82-25c7-4.07,11.18-4.38,13.31-4C81.59,42.26,80.38,41.77,80.38,41.77Z"/><path d="M64.36,20.46a24,24,0,0,0-7.09-5.58c-3-1.59-7.1-3.17-7.08-3.17.24-.21-4.87,10.93-10.19,15.74C36.68,31,29.85,34.81,24,35.26a19.24,19.24,0,0,1-10.6-1.64c.14.19.3.38.45.57,1.07,1.13,3.15,3,5.47,3.35,3.36.52,3.94-1.57,3.94-1.57s2,4.64,5.26,5.82c1.53.55,4.16-.24,5.19-.59a37.59,37.59,0,0,0,5.46-2.64c.56.6,7.25,6.8,15.09,4.24,4.1-1.34,9.78-5.24,11.51-9.89C68.23,26.53,66.26,22.9,64.36,20.46ZM55.58,31.22a4.88,4.88,0,0,1-3.24,2.4,4.29,4.29,0,0,1-3.66-1.41l-.84-.82a75.26,75.26,0,0,0,5.55-7.8c.52.32,1,.62,1.58.91a3.49,3.49,0,0,1,1.67,2.67A5.64,5.64,0,0,1,55.58,31.22Z"/><path class="cls-1" d="M22.82,38A11.19,11.19,0,0,0,27,42.54c-5.37-.51-10.41-4.75-10.41-4.75S19.71,40.17,22.82,38Z"/></svg>